<?xml version="1.0" encoding="UTF-8" standalone="no"?>
<!-- Created with Inkscape (http://www.inkscape.org/) -->

<svg
   xmlns:dc="http://purl.org/dc/elements/1.1/"
   xmlns:cc="http://creativecommons.org/ns#"
   xmlns:rdf="http://www.w3.org/1999/02/22-rdf-syntax-ns#"
   xmlns:svg="http://www.w3.org/2000/svg"
   xmlns="http://www.w3.org/2000/svg"
   xmlns:sodipodi="http://sodipodi.sourceforge.net/DTD/sodipodi-0.dtd"
   xmlns:inkscape="http://www.inkscape.org/namespaces/inkscape"
   width="140mm"
   height="140mm"
   viewBox="0 0 140 140"
   version="1.1"
   id="svg7286"
   inkscape:version="0.92.5 (2060ec1f9f, 2020-04-08)"
   sodipodi:docname="logo.svg"
   inkscape:export-filename="/home/oxynozeta/dev/golang/src/github.com/oxyno-zeta/s3-proxy/docs/logo.png"
   inkscape:export-xdpi="96"
   inkscape:export-ydpi="96">
  <defs
     id="defs7280" />
  <sodipodi:namedview
     id="base"
     pagecolor="#ffffff"
     bordercolor="#666666"
     borderopacity="1.0"
     inkscape:pageopacity="0.0"
     inkscape:pageshadow="2"
     inkscape:zoom="0.98994949"
     inkscape:cx="188.78445"
     inkscape:cy="348.94917"
     inkscape:document-units="mm"
     inkscape:current-layer="layer2"
     showgrid="false"
     inkscape:window-width="1920"
     inkscape:window-height="1016"
     inkscape:window-x="0"
     inkscape:window-y="27"
     inkscape:window-maximized="1"
     inkscape:pagecheckerboard="true" />
  <metadata
     id="metadata7283">
    <rdf:RDF>
      <cc:Work
         rdf:about="">
        <dc:format>image/svg+xml</dc:format>
        <dc:type
           rdf:resource="http://purl.org/dc/dcmitype/StillImage" />
        <dc:title></dc:title>
      </cc:Work>
    </rdf:RDF>
  </metadata>
  <g
     inkscape:label="Calque 1"
     inkscape:groupmode="layer"
     id="layer1"
     transform="translate(0,-157)" />
  <g
     inkscape:groupmode="layer"
     id="layer2"
     inkscape:label="Calque 2"
     transform="translate(0,-60)">
    <path
       style="opacity:1;fill:#ff7200;fill-opacity:1;stroke:none;stroke-width:0.90522128;stroke-miterlimit:4;stroke-dasharray:none;stroke-opacity:1"
       d="M 264.61328 37.794922 C 243.69784 37.79082 93.918684 115.88426 83.457031 132.24805 C 72.995378 148.61183 72.958319 304.85672 83.412109 321.22461 C 93.8659 337.59249 243.60604 415.74395 264.52148 415.74805 C 285.43693 415.75215 435.21608 337.65871 445.67773 321.29492 C 456.13939 304.93114 456.17645 148.68624 445.72266 132.31836 C 435.26887 115.95047 285.52873 37.799023 264.61328 37.794922 z M 265.30859 74.849609 A 170.07874 151.1811 0 0 1 435.38672 226.03125 A 170.07874 151.1811 0 0 1 265.30859 377.21289 A 170.07874 151.1811 0 0 1 95.228516 226.03125 A 170.07874 151.1811 0 0 1 265.30859 74.849609 z "
       transform="matrix(0.26458333,0,0,0.26458333,0,60)"
       id="path7294" />
    <path
       style="opacity:1;fill:#ff7200;fill-opacity:1;stroke:none;stroke-width:0.64833122;stroke-miterlimit:4;stroke-dasharray:none;stroke-opacity:1"
       d="m 70.001281,89.999993 -35.00128,16.684577 v 13.31542 l 35.00128,-16.68458 34.997669,16.603 0.001,-13.31493 z"
       id="path7866"
       inkscape:connector-curvature="0"
       sodipodi:nodetypes="ccccccc" />
    <path
       style="opacity:1;fill:#ff7200;fill-opacity:1;stroke:none;stroke-width:0.64833122;stroke-miterlimit:4;stroke-dasharray:none;stroke-opacity:1"
       d="m 69.883722,149.78496 35.064538,-16.55123 0.0507,-13.31532 -35.064542,16.55122 -34.934215,-16.7361 -0.05168,13.31483 z"
       id="path7866-9"
       inkscape:connector-curvature="0"
       sodipodi:nodetypes="ccccccc" />
    <text
       xml:space="preserve"
       style="font-style:normal;font-weight:normal;font-size:11.29377556px;line-height:1.25;font-family:sans-serif;letter-spacing:0px;word-spacing:0px;fill:#000000;fill-opacity:1;stroke:none;stroke-width:0.2823444"
       x="42.398285"
       y="184.44528"
       id="text7938"
       transform="scale(0.98359319,1.0166805)"><tspan
         sodipodi:role="line"
         id="tspan7936"
         x="42.398285"
         y="184.44528"
         style="font-style:normal;font-variant:normal;font-weight:bold;font-stretch:normal;font-family:sans-serif;-inkscape-font-specification:'sans-serif Bold';stroke-width:0.2823444">S3-Proxy</tspan></text>
  </g>
</svg>
